<?xml version="1.0" encoding="utf-8"?>
<svg version="1.1" xmlns="http://www.w3.org/2000/svg" xmlns:xlink="http://www.w3.org/1999/xlink" x="0px" y="0px"
	 viewBox="0 0 395 395" style="enable-background:new 0 0 395 395;" xml:space="preserve">
<style type="text/css">
	.st0{fill:#69BE4B;}
	.st1{fill:#4B3241;}
</style>
<g>
	<path class="st0" d="M116.8,181.6c-26.1,60-12.6,124.7,29.7,149.4c46.9,14,103.4-20.2,129.5-80.2L116.8,181.6z"/>
	<path class="st1" d="M247.5,137.2c12-26.9,2.8-58.6-21.8-74.9c-4.1-2.7-9.6-1.5-12.3,2.6c-0.3,0.4-0.5,0.9-0.7,1.3l-5,11.5
		c-1.7,3.7-0.5,8.1,2.7,10.6c11.3,8.4,15.3,23.4,9.8,36.3c-0.1,0.2-0.1,0.4-0.2,0.6c-47.2-12.1-95.9,13.1-113.3,58.6
		c-1.8,4.8,0.5,10.3,5.2,12.3l157.3,68.4c4.7,2.1,10.3,0.1,12.6-4.6C303.2,216.2,288.4,163.5,247.5,137.2z"/>
</g>
</svg>
